<svg height="512" width="512" xmlns="http://www.w3.org/2000/svg" xmlns:xlink="http://www.w3.org/1999/xlink"><linearGradient id="c" gradientUnits="userSpaceOnUse" x1="74.98" x2="437.019" y1="437.019" y2="74.981"><stop offset="0" stop-color="#008547"/><stop offset="1" stop-color="#ddff59"/></linearGradient><radialGradient id="d" cx="256" cy="256" gradientUnits="userSpaceOnUse" r="256"><stop offset="0" stop-color="#00aa45"/><stop offset=".235" stop-color="#3ec340" stop-opacity=".765"/><stop offset=".502" stop-color="#7ddc3a" stop-opacity=".498"/><stop offset=".728" stop-color="#acef36" stop-opacity=".272"/><stop offset=".901" stop-color="#c8fb34" stop-opacity=".099"/><stop offset="1" stop-color="#d3ff33" stop-opacity="0"/></radialGradient><linearGradient id="a"><stop offset="0" stop-color="#008547"/><stop offset=".121" stop-color="#128f45"/><stop offset=".365" stop-color="#41aa41"/><stop offset=".705" stop-color="#8cd63a"/><stop offset="1" stop-color="#d3ff33"/></linearGradient><linearGradient id="e" gradientUnits="userSpaceOnUse" x1="206.566" x2="877.507" xlink:href="#a" y1="405.002" y2="-265.939"/><linearGradient id="b"><stop offset="0" stop-color="#00aa45" stop-opacity="0"/><stop offset=".32" stop-color="#00a645" stop-opacity=".32"/><stop offset=".662" stop-color="#009946" stop-opacity=".662"/><stop offset="1" stop-color="#008547"/></linearGradient><linearGradient id="f" gradientUnits="userSpaceOnUse" x1="256" x2="256" xlink:href="#b" y1="464.15" y2="342.007"/><linearGradient id="g" gradientUnits="userSpaceOnUse" x1="86.834" x2="762.52" xlink:href="#a" y1="495.018" y2="-180.667"/><linearGradient id="h" gradientUnits="userSpaceOnUse" x1="256" x2="256" xlink:href="#b" y1="432.194" y2="311.953"/><linearGradient id="i" gradientUnits="userSpaceOnUse" x1="4.84" x2="568.942" xlink:href="#a" y1="478.575" y2="-85.526"/><linearGradient id="j" gradientUnits="userSpaceOnUse" x1="-143.203" x2="600.627" y1="625.583" y2="-118.248"><stop offset="0" stop-color="#b8ef5c"/><stop offset=".362" stop-color="#ddff59"/><stop offset="1" stop-color="#fff"/></linearGradient><linearGradient id="k" gradientUnits="userSpaceOnUse" x1="55.787" x2="384.117" xlink:href="#a" y1="425.727" y2="97.397"/><linearGradient id="l" gradientUnits="userSpaceOnUse" x1="181.462" x2="388.837" y1="299.871" y2="92.495"><stop offset="0" stop-color="#008547"/><stop offset=".121" stop-color="#128f45"/><stop offset=".365" stop-color="#41ab41"/><stop offset=".705" stop-color="#8cd63a"/><stop offset="1" stop-color="#d3ff33"/></linearGradient><linearGradient id="m" gradientUnits="userSpaceOnUse" x1="211.533" x2="355.832" xlink:href="#a" y1="270.075" y2="125.776"/><linearGradient id="n" gradientUnits="userSpaceOnUse" x1="37.527" x2="216.247" xlink:href="#a" y1="328.076" y2="149.357"/><linearGradient id="o" gradientUnits="userSpaceOnUse" x1="269.893" x2="430.008" xlink:href="#a" y1="327.748" y2="167.633"/><circle cx="256" cy="256" fill="url(#c)" r="256"/><circle cx="256" cy="256" fill="url(#d)" r="256"/><path d="M79.978 338.5c.44 10 .961 20 1.561 30 .505 8.276 7.687 15.243 15.961 15.527a4723.114 4723.114 0 00317 0c8.274-.283 15.455-7.25 15.961-15.527.6-10 1.121-20 1.561-30a7512.242 7512.242 0 01-352.044 0z" fill="url(#e)"/><path d="M79.978 338.5c.44 10 .961 20 1.561 30 .505 8.276 7.687 15.243 15.961 15.527a4723.114 4723.114 0 00317 0c8.274-.283 15.455-7.25 15.961-15.527.6-10 1.121-20 1.561-30a7512.242 7512.242 0 01-352.044 0z" fill="url(#f)"/><path d="M78.898 308.5c.28 10 .64 20 1.081 30 .37 8.279 7.514 15.184 15.876 15.403a6305.486 6305.486 0 00320.291 0c8.362-.22 15.506-7.127 15.876-15.403.44-10 .8-20 1.081-30a11949.34 11949.34 0 01-354.205 0z" fill="url(#g)"/><path d="M78.898 308.5c.28 10 .64 20 1.081 30 .37 8.279 7.514 15.184 15.876 15.403a6305.486 6305.486 0 00320.291 0c8.362-.22 15.506-7.127 15.876-15.403.44-10 .8-20 1.081-30a11949.34 11949.34 0 01-354.205 0z" fill="url(#h)"/><path d="M81.539 143.5c-3.302 55-4.182 110-2.641 165 .236 8.277 7.323 15.126 15.75 15.279a9247.54 9247.54 0 00322.704 0c8.427-.154 15.515-7.002 15.75-15.279 1.541-55 .66-110-2.641-165-.504-8.278-7.687-15.243-15.961-15.527a4723.114 4723.114 0 00-317 0c-8.274.284-15.456 7.25-15.961 15.527z" fill="url(#i)"/><path d="M411.225 187.513c-12.048-2.596-21.724-12.094-24.56-24.035-.845-3.545-4.043-6.143-7.642-6.215a6302.718 6302.718 0 00-246.045 0c-3.598.07-6.797 2.671-7.642 6.215-2.836 11.939-12.513 21.438-24.56 24.035-3.576.772-6.231 3.9-6.337 7.476a2072.384 2072.384 0 00-.9 61.773c.001 3.576 2.583 6.664 6.165 7.384 12.058 2.418 21.579 11.797 24.167 23.707.769 3.534 3.948 6.096 7.591 6.123 83.026.616 166.052.616 249.078 0 3.643-.026 6.822-2.591 7.591-6.123 2.589-11.91 12.109-21.289 24.167-23.707 3.581-.72 6.164-3.808 6.164-7.384.007-20.591-.292-41.182-.9-61.773-.106-3.576-2.762-6.703-6.337-7.476z" fill="url(#j)"/><path d="M325.095 225.364c.221 38.011-31.031 69.043-69.094 69.074-38.063-.03-69.316-31.063-69.094-69.074.33-38.008 31.582-69.273 69.094-69.301 37.511.026 68.764 31.294 69.094 69.301z" fill="url(#k)"/><path d="M294.386 225.286c.075 21.193-17.165 38.398-38.386 38.402-21.221-.004-38.462-17.21-38.386-38.402.095-21.194 17.335-38.468 38.386-38.473 21.051.004 38.292 17.279 38.386 38.473z" fill="url(#l)"/><path d="M263.686 240.626c-21.226-.007-38.422-17.192-38.308-38.399-4.837 6.432-7.733 14.415-7.763 23.059-.075 21.193 17.165 38.397 38.386 38.402 21.221-.005 38.461-17.209 38.386-38.402-6.972 9.312-18.132 15.343-30.701 15.34z" fill="url(#m)"/><path d="M170.528 225.424c-.126 16.899-13.882 30.591-30.866 30.576-16.979-.021-30.777-13.56-30.551-30.237.23-16.678 14.31-30.414 31.18-30.621 16.875-.202 30.348 13.381 30.237 30.282z" fill="url(#n)"/><path d="M402.889 225.763c.226 16.677-13.572 30.217-30.552 30.237-16.984.015-30.739-13.676-30.865-30.576-.112-16.9 13.361-30.486 30.237-30.282 16.87.207 30.95 13.946 31.18 30.621z" fill="url(#o)"/></svg>