<svg height="512" width="512" xmlns="http://www.w3.org/2000/svg" xmlns:xlink="http://www.w3.org/1999/xlink"><linearGradient id="d" gradientUnits="userSpaceOnUse" x1="74.98" x2="437.019" y1="437.019" y2="74.981"><stop offset="0" stop-color="#ff4c5e"/><stop offset="1" stop-color="#fff200"/></linearGradient><linearGradient id="a"><stop offset="0" stop-color="#ff4c5e" stop-opacity=".6"/><stop offset="1" stop-color="#fff200" stop-opacity="0"/></linearGradient><radialGradient id="e" cx="256" cy="256" gradientUnits="userSpaceOnUse" r="256" xlink:href="#a"/><linearGradient id="b"><stop offset="0" stop-color="#ffcb00"/><stop offset=".5" stop-color="#fff200"/><stop offset=".605" stop-color="#fff52f"/><stop offset=".879" stop-color="#fefca6"/><stop offset="1" stop-color="#feffd6"/></linearGradient><linearGradient id="f" gradientUnits="userSpaceOnUse" x1="-529.22" x2="587.052" xlink:href="#b" y1="1041.221" y2="-75.051"/><linearGradient id="g" gradientUnits="userSpaceOnUse" x1="179.279" x2="504.707" xlink:href="#b" y1="332.722" y2="7.294"/><linearGradient id="c"><stop offset="0" stop-color="#fff200" stop-opacity="0"/><stop offset=".391" stop-color="#fff001" stop-opacity=".235"/><stop offset=".539" stop-color="#ffe905" stop-opacity=".324"/><stop offset=".646" stop-color="#ffdd0c" stop-opacity=".388"/><stop offset=".733" stop-color="#ffcc16" stop-opacity=".44"/><stop offset=".808" stop-color="#ffb622" stop-opacity=".485"/><stop offset=".875" stop-color="#ff9a32" stop-opacity=".525"/><stop offset=".935" stop-color="#ff7945" stop-opacity=".561"/><stop offset=".99" stop-color="#ff555a" stop-opacity=".594"/><stop offset="1" stop-color="#ff4c5e" stop-opacity=".6"/></linearGradient><radialGradient id="h" cx="283.168" cy="228.833" gradientUnits="userSpaceOnUse" r="145.231" xlink:href="#c"/><radialGradient id="i" cx="256.515" cy="294.739" gradientTransform="rotate(45 256.066 255.972)" gradientUnits="userSpaceOnUse" r="245.059"><stop offset="0" stop-color="#ff4c5e" stop-opacity=".6"/><stop offset=".12" stop-color="#ff515c" stop-opacity=".51"/><stop offset=".245" stop-color="#ff5d55" stop-opacity=".417"/><stop offset=".372" stop-color="#ff7249" stop-opacity=".321"/><stop offset=".502" stop-color="#ff8f38" stop-opacity=".225"/><stop offset=".632" stop-color="#ffb523" stop-opacity=".127"/><stop offset=".762" stop-color="#ffe209" stop-opacity=".03"/><stop offset=".802" stop-color="#fff200" stop-opacity="0"/></radialGradient><linearGradient id="j" gradientTransform="rotate(45 256.066 255.972)" gradientUnits="userSpaceOnUse" x1="256" x2="256" xlink:href="#a" y1="738.454" y2="-77.26"/><linearGradient id="k" gradientUnits="userSpaceOnUse" x1="-664.411" x2="451.859" xlink:href="#b" y1="1176.411" y2="60.14"/><linearGradient id="l" gradientUnits="userSpaceOnUse" x1="125.718" x2="451.146" xlink:href="#b" y1="386.283" y2="60.854"/><radialGradient id="m" cx="228.833" cy="283.167" gradientUnits="userSpaceOnUse" r="145.231" xlink:href="#c"/><linearGradient id="n" gradientUnits="userSpaceOnUse" x1="-41.686" x2="351.998" y1="553.686" y2="160.001"><stop offset="0" stop-color="#fff200"/><stop offset=".33" stop-color="#fff658"/><stop offset=".794" stop-color="#fffdcf"/><stop offset="1" stop-color="#fff"/></linearGradient><linearGradient id="o" gradientUnits="userSpaceOnUse" x1="149.324" x2="427.347" xlink:href="#b" y1="352.253" y2="74.23"/><linearGradient id="p" gradientUnits="userSpaceOnUse" x1="127.649" x2="398.207" xlink:href="#b" y1="400.838" y2="132.505"/><circle cx="256" cy="256" fill="url(#d)" r="256"/><circle cx="256" cy="256" fill="url(#e)" r="256"/><path d="M452.213 229.484c.39 90.313-77.794 167.477-169.38 168.396-91.603.198-168.911-77.108-168.712-168.712.917-91.587 78.083-169.77 168.396-169.38 90.295 1.074 168.621 79.399 169.696 169.696z" fill="url(#f)"/><path d="M406.109 229.209c.274 66.634-55.779 122.15-123.088 122.567-67.318.139-122.937-55.48-122.797-122.797.417-67.309 55.933-123.362 122.567-123.088 66.625.535 122.783 56.693 123.318 123.318z" fill="url(#g)"/><path d="M406.109 229.209c.274 66.634-55.779 122.15-123.088 122.567-67.318.139-122.937-55.48-122.797-122.797.417-67.309 55.933-123.362 122.567-123.088 66.625.535 122.783 56.693 123.318 123.318z" fill="url(#h)"/><path d="M401.976 347.15c-67.122 66.969-171.287 67.889-237.886.76-67.127-66.6-66.209-170.763.76-237.886 66.509-67.649 168.638-66.531 235.918 1.208 67.739 67.278 68.856 169.409 1.208 235.918z" fill="url(#i)"/><path d="M424.689 319.62c13.009-61.76-6.298-127.619-55.477-176.832C319.999 93.61 254.141 74.3 192.38 87.311c-9.686 6.466-18.926 14.041-27.53 22.714-66.971 67.122-67.888 171.285-.76 237.886 66.6 67.128 170.764 66.209 237.886-.76 8.673-8.603 16.247-17.846 22.713-27.531z" fill="url(#j)"/><path d="M397.879 282.833c-.916 91.587-78.083 169.769-168.396 169.38-90.296-1.075-168.622-79.401-169.696-169.696-.39-90.313 77.794-167.48 169.38-168.396 91.603-.2 168.911 77.11 168.712 168.712z" fill="url(#k)"/><path d="M351.776 283.022c-.416 67.308-55.932 123.363-122.567 123.088-66.626-.536-122.783-56.692-123.318-123.318-.274-66.633 55.78-122.152 123.088-122.568 67.317-.137 122.935 55.479 122.797 122.798z" fill="url(#l)"/><path d="M351.776 283.022c-.416 67.308-55.932 123.363-122.567 123.088-66.626-.536-122.783-56.692-123.318-123.318-.274-66.633 55.78-122.152 123.088-122.568 67.317-.137 122.935 55.479 122.797 122.798z" fill="url(#m)"/><path d="M321.04 283.107c-.203 50.723-41.63 92.453-91.974 92.267-50.339-.293-92.145-42.102-92.439-92.44-.186-50.344 41.545-91.771 92.267-91.974 50.727-.084 92.231 41.419 92.146 92.147z" fill="url(#n)"/><path d="M228.824 243.152c-6.861-8.405-17.294-13.755-28.99-13.731-20.658.053-37.479 16.786-37.453 37.326.106 39.663 48.061 73.62 62.474 83a7.582 7.582 0 008.237.024c9.066-5.836 31.256-21.361 46.557-42.048-16.894-21.498-33.88-43.057-50.825-64.571z" fill="url(#o)"/><path d="M257.832 229.367c-11.696 0-22.14 5.376-29.008 13.784-.01 31.331 21.706 57.607 50.826 64.572 9.009-12.183 15.604-26.131 15.615-40.927.009-20.647-16.774-37.423-37.433-37.429z" fill="url(#p)"/></svg>