<svg height="512" width="512" xmlns="http://www.w3.org/2000/svg" xmlns:xlink="http://www.w3.org/1999/xlink"><linearGradient id="c" gradientUnits="userSpaceOnUse" x1="74.981" x2="437.02" y1="437.019" y2="74.98"><stop offset="0" stop-color="#230be0"/><stop offset="1" stop-color="#dda2fc"/></linearGradient><radialGradient id="d" cx="204.282" cy="306.704" gradientUnits="userSpaceOnUse" r="361.426"><stop offset="0" stop-color="#230be0" stop-opacity=".5"/><stop offset=".121" stop-color="#4e2ee6" stop-opacity=".439"/><stop offset=".266" stop-color="#7951ed" stop-opacity=".367"/><stop offset=".412" stop-color="#9d6ef2" stop-opacity=".294"/><stop offset=".558" stop-color="#b985f7" stop-opacity=".221"/><stop offset=".705" stop-color="#cd95fa" stop-opacity=".148"/><stop offset=".852" stop-color="#d99ffb" stop-opacity=".074"/><stop offset="1" stop-color="#dda2fc" stop-opacity="0"/></radialGradient><linearGradient id="e" gradientTransform="rotate(45 378.962 -465.866)" gradientUnits="userSpaceOnUse" x1="802.394" x2="802.394" y1="58.468" y2="-118.571"><stop offset="0" stop-color="#dda2fc" stop-opacity="0"/><stop offset=".172" stop-color="#da9ffb" stop-opacity=".172"/><stop offset=".32" stop-color="#cf97fa" stop-opacity=".32"/><stop offset=".459" stop-color="#bd88f7" stop-opacity=".459"/><stop offset=".593" stop-color="#a474f3" stop-opacity=".593"/><stop offset=".723" stop-color="#845aef" stop-opacity=".723"/><stop offset=".85" stop-color="#5d3ae9" stop-opacity=".85"/><stop offset=".972" stop-color="#2f14e2" stop-opacity=".972"/><stop offset="1" stop-color="#230be0"/></linearGradient><linearGradient id="a"><stop offset="0" stop-color="#5471ff"/><stop offset=".142" stop-color="#6075ff"/><stop offset=".397" stop-color="#7f80fe"/><stop offset=".732" stop-color="#b092fd"/><stop offset="1" stop-color="#dda2fc"/></linearGradient><linearGradient id="f" gradientUnits="userSpaceOnUse" x1="149.603" x2="312.951" xlink:href="#a" y1="362.397" y2="199.049"/><linearGradient id="g" gradientUnits="userSpaceOnUse" x1="173.486" x2="346.547" xlink:href="#a" y1="338.514" y2="165.453"/><linearGradient id="h" gradientUnits="userSpaceOnUse" x1="209.723" x2="364.938" y1="302.277" y2="147.063"><stop offset="0" stop-color="#230be0"/><stop offset=".013" stop-color="#2b11e1" stop-opacity=".987"/><stop offset=".087" stop-color="#5433e7" stop-opacity=".913"/><stop offset=".168" stop-color="#7951ed" stop-opacity=".832"/><stop offset=".254" stop-color="#986af2" stop-opacity=".746"/><stop offset=".348" stop-color="#b27ff5" stop-opacity=".652"/><stop offset=".452" stop-color="#c58ef8" stop-opacity=".548"/><stop offset=".573" stop-color="#d39afa" stop-opacity=".427"/><stop offset=".723" stop-color="#dba0fc" stop-opacity=".277"/><stop offset="1" stop-color="#dda2fc" stop-opacity="0"/></linearGradient><linearGradient id="b"><stop offset="0" stop-color="#dda2fc"/><stop offset=".187" stop-color="#e1adfc"/><stop offset=".511" stop-color="#ebc9fd"/><stop offset=".932" stop-color="#fcf7ff"/><stop offset="1" stop-color="#fff"/></linearGradient><linearGradient id="i" gradientTransform="rotate(45 256.066 255.972)" gradientUnits="userSpaceOnUse" x1="256" x2="256" xlink:href="#b" y1="414.118" y2="203.756"/><linearGradient id="j" gradientTransform="rotate(45 256.066 255.972)" gradientUnits="userSpaceOnUse" x1="256.258" x2="256.258" xlink:href="#b" y1="485.39" y2="32.954"/><linearGradient id="k" gradientUnits="userSpaceOnUse" x1="5.102" x2="326.356" xlink:href="#b" y1="463.575" y2="142.321"/><linearGradient id="l" gradientTransform="rotate(45 247.491 -347.607)" gradientUnits="userSpaceOnUse" x1="711.422" x2="711.422" xlink:href="#b" y1="90.082" y2="-190.278"/><linearGradient id="m" gradientUnits="userSpaceOnUse" x1="182.357" x2="400.606" xlink:href="#b" y1="307.678" y2="89.429"/><circle cx="256" cy="256" fill="url(#c)" r="256"/><circle cx="256" cy="256" fill="url(#d)" r="256"/><path d="M375.452 190.685c-14.324-.172-27.849-5.855-38.064-16.074-10.218-10.213-15.902-23.738-16.073-38.063-.171-14.322 5.172-27.723 14.976-37.647 8.741-8.846 17.421-17.64 26.029-26.373a8017.244 8017.244 0 0077.152 77.152 28629.494 28629.494 0 00-26.373 26.029c-9.924 9.804-23.326 15.146-37.647 14.976z" fill="url(#e)"/><path d="M332.277 212.434a17393.364 17393.364 0 01-32.711-32.711 74163.35 74163.35 0 01-54.097 54.19c-1.809 12.683-3.622 25.368-5.434 38.051 12.684-1.812 25.368-3.625 38.051-5.434a78352.499 78352.499 0 0154.191-54.096z" fill="url(#f)"/><path d="M278.087 266.53a62689.066 62689.066 0 01-32.617-32.617 77143.035 77143.035 0 01-32.613 32.617 91167.321 91167.321 0 0132.614 32.614 71634.605 71634.605 0 0132.616-32.614z" fill="url(#g)"/><path d="M299.567 179.723a76068.52 76068.52 0 01-86.71 86.807 91167.321 91167.321 0 0132.614 32.614c28.98-28.994 58.04-58.021 86.807-86.709a17099.07 17099.07 0 01-32.711-32.712z" fill="url(#h)"/><path d="M256.341 288.27a501297.272 501297.272 0 00-32.61-32.61c-3.001-3-7.867-2.997-10.871.004-9.063 9.06-18.126 18.113-27.177 27.149a35688.818 35688.818 0 0143.505 43.505c9.036-9.051 18.089-18.114 27.149-27.177 3.002-3.006 3.005-7.871.004-10.871z" fill="url(#i)"/><path d="M294.101 369.656A51944.853 51944.853 0 00142.344 217.9c-11.915-11.879-31.32-11.663-43.42.312a12252.966 12252.966 0 01-21.878 21.606 9179.423 9179.423 0 0132.558 10.597A22089.578 22089.578 0 01218.401 358.91c.402 14.122.811 28.244 1.226 42.367 5.925-5.981 15.585-5.965 21.531.039 5.948 6.004 5.927 15.738.004 21.743-9.33 9.455-18.613 18.887-27.837 28.282-5.858 5.962-5.765 15.688.139 21.733 5.906 6.045 15.382 6.09 21.236.093a12394.5 12394.5 0 0159.089-60.089c11.974-12.102 12.19-31.507.312-43.422z" fill="url(#j)"/><path d="M229.21 348.059a27467.86 27467.86 0 00-108.699-108.456c-11.946-11.865-31.384-11.68-43.464.214A12197.483 12197.483 0 0138.835 277.3c-5.996 5.854-5.952 15.331.093 21.236 6.045 5.904 15.77 5.998 21.733.139 9.395-9.224 18.827-18.507 28.282-27.837 6.005-5.922 15.74-5.943 21.743.004 6.004 5.946 6.019 15.606.039 21.531a21803.487 21803.487 0 01-28.173 27.855c-5.943 5.862-5.824 15.431.244 21.43 6.068 5.997 15.762 6.14 21.678.267 9.321-9.247 18.685-18.548 28.079-27.888 5.966-5.929 15.696-5.897 21.719.108 6.023 6.004 6.069 15.708.12 21.648-9.371 9.353-18.709 18.67-28 27.937-5.902 5.883-5.75 15.525.302 21.577s15.694 6.204 21.577.302c9.267-9.291 18.583-18.629 27.937-28 5.939-5.948 15.645-5.903 21.648.12 6.005 6.023 6.038 15.754.108 21.719-9.34 9.394-18.641 18.758-27.888 28.079-5.873 5.916-5.731 15.61.267 21.678s15.567 6.187 21.43.244a21786.894 21786.894 0 0137.503-37.908c11.885-11.992 11.918-31.465-.066-43.482z" fill="url(#k)"/><path d="M438.819 128.422a7416.797 7416.797 0 01-22.163-22.026c.482 14.239.901 28.478 1.257 42.717a36670.867 36670.867 0 00-15.829 15.688c-14.635 14.493-38.917 14.233-54.011-.873.118-.135-58.001 47.102-58.096 47.207 7.257 7.262 14.52 14.52 21.783 21.769 3.008 3.002 7.873 3.015 10.863.034 9.145-9.118 18.268-18.209 27.357-27.259 8.876.05 17.752.109 26.628.177 17.34-.075 34.554-6.518 47.509-19.271 5.319-5.239 10.62-10.455 15.901-15.646 11.683-11.467 11.069-30.376-1.199-42.517z" fill="url(#l)"/><path d="M300.827 211.173l47.245-47.245c-15.107-15.094-15.367-39.376-.873-54.011 5.251-5.296 10.481-10.573 15.688-15.83a8572.7 8572.7 0 0055.026 55.026c11.627-11.497 10.974-30.509-1.257-42.717a7557.975 7557.975 0 01-33.078-33.215c-12.142-12.268-31.05-12.881-42.516-1.199-4.955 5.041-9.932 10.1-14.931 15.175-12.961 13.166-19.653 30.766-19.767 48.456-.005 8.802-.02 17.604-.042 26.407-9.05 9.089-18.14 18.212-27.259 27.357-2.981 2.99-2.969 7.855.034 10.863 3.625 3.632 7.251 7.263 10.88 10.894 3.005 3.009 7.865 3.023 10.85.039z" fill="url(#m)"/></svg>