<svg height="512" width="512" xmlns="http://www.w3.org/2000/svg" xmlns:xlink="http://www.w3.org/1999/xlink"><linearGradient id="a"><stop offset="0" stop-color="#0056e0"/><stop offset="1" stop-color="#85ffe0"/></linearGradient><linearGradient id="f" gradientUnits="userSpaceOnUse" x1="74.98" x2="437.019" xlink:href="#a" y1="437.019" y2="74.98"/><radialGradient id="g" cx="264.619" cy="327.493" gradientUnits="userSpaceOnUse" r="330.672"><stop offset="0" stop-color="#0072ff"/><stop offset=".044" stop-color="#0d80fc" stop-opacity=".956"/><stop offset=".185" stop-color="#32a7f3" stop-opacity=".815"/><stop offset=".33" stop-color="#50c7ec" stop-opacity=".67"/><stop offset=".481" stop-color="#67dfe7" stop-opacity=".519"/><stop offset=".637" stop-color="#78f1e3" stop-opacity=".363"/><stop offset=".804" stop-color="#82fce1" stop-opacity=".196"/><stop offset="1" stop-color="#85ffe0" stop-opacity="0"/></radialGradient><linearGradient id="b"><stop offset="0" stop-color="#389fff"/><stop offset=".107" stop-color="#45affa"/><stop offset=".509" stop-color="#73e9e7"/><stop offset=".702" stop-color="#85ffe0"/><stop offset=".831" stop-color="#9dffe6"/><stop offset="1" stop-color="#c2fff0"/></linearGradient><linearGradient id="h" gradientUnits="userSpaceOnUse" x1="56.362" x2="432.364" xlink:href="#b" y1="296.086" y2="-79.916"/><linearGradient id="i" gradientUnits="userSpaceOnUse" x1="-40.993" x2="303.907" xlink:href="#b" y1="390.749" y2="45.849"/><linearGradient id="j" gradientUnits="userSpaceOnUse" x1="102.444" x2="291.953" xlink:href="#b" y1="332.951" y2="143.442"/><linearGradient id="k" gradientUnits="userSpaceOnUse" x1="139.114" x2="407.758" xlink:href="#b" y1="392.322" y2="123.678"/><linearGradient id="l" gradientUnits="userSpaceOnUse" x1="251.988" x2="443.344" xlink:href="#b" y1="367.57" y2="176.214"/><linearGradient id="c"><stop offset="0" stop-color="#73ecff"/><stop offset=".5" stop-color="#85ffe0"/><stop offset=".615" stop-color="#9dffe6"/><stop offset=".856" stop-color="#dafff6"/><stop offset=".992" stop-color="#fff"/></linearGradient><linearGradient id="m" gradientUnits="userSpaceOnUse" x1="54.478" x2="242.977" xlink:href="#c" y1="266.4" y2="77.901"/><linearGradient id="d"><stop offset="0" stop-color="#43dcc7"/><stop offset=".117" stop-color="#5be9d0" stop-opacity=".883"/><stop offset=".253" stop-color="#6ef3d7" stop-opacity=".747"/><stop offset=".411" stop-color="#7bfadc" stop-opacity=".589"/><stop offset=".613" stop-color="#83fedf" stop-opacity=".388"/><stop offset="1" stop-color="#85ffe0" stop-opacity="0"/></linearGradient><linearGradient id="n" gradientUnits="userSpaceOnUse" x1="187.038" x2="281.829" xlink:href="#d" y1="133.84" y2="39.049"/><linearGradient id="o" gradientUnits="userSpaceOnUse" x1="70.125" x2="258.034" xlink:href="#c" y1="265.765" y2="77.856"/><linearGradient id="p" gradientUnits="userSpaceOnUse" x1="202.27" x2="296.764" xlink:href="#d" y1="133.62" y2="39.126"/><linearGradient id="q" gradientUnits="userSpaceOnUse" x1="85.83" x2="273.084" xlink:href="#c" y1="265.137" y2="77.883"/><linearGradient id="r" gradientUnits="userSpaceOnUse" x1="217.515" x2="311.679" xlink:href="#d" y1="133.452" y2="39.288"/><linearGradient id="s" gradientUnits="userSpaceOnUse" x1="101.599" x2="288.129" xlink:href="#c" y1="264.512" y2="77.982"/><linearGradient id="t" gradientUnits="userSpaceOnUse" x1="232.774" x2="326.575" xlink:href="#d" y1="133.337" y2="39.536"/><linearGradient id="u" gradientUnits="userSpaceOnUse" x1="117.426" x2="303.167" xlink:href="#c" y1="263.894" y2="78.153"/><linearGradient id="v" gradientUnits="userSpaceOnUse" x1="248.046" x2="341.451" xlink:href="#d" y1="133.274" y2="39.87"/><linearGradient id="w" gradientUnits="userSpaceOnUse" x1=".056" x2="358.863" xlink:href="#b" y1="674.955" y2="316.148"/><linearGradient id="x" gradientUnits="userSpaceOnUse" x1="123.087" x2="330.857" xlink:href="#b" y1="449.425" y2="241.655"/><linearGradient id="y" gradientUnits="userSpaceOnUse" x1="56.882" x2="397.663" xlink:href="#b" y1="566.57" y2="225.789"/><linearGradient id="z" gradientUnits="userSpaceOnUse" x1="256" x2="256" y1="427.377" y2="260.322"><stop offset="0" stop-color="#85ffe0" stop-opacity="0"/><stop offset=".203" stop-color="#82fce1" stop-opacity=".203"/><stop offset=".37" stop-color="#78f2e3" stop-opacity=".37"/><stop offset=".524" stop-color="#68e0e7" stop-opacity=".524"/><stop offset=".67" stop-color="#51c8ec" stop-opacity=".67"/><stop offset=".811" stop-color="#34a9f3" stop-opacity=".811"/><stop offset=".946" stop-color="#1083fb" stop-opacity=".946"/><stop offset="1" stop-color="#0072ff"/></linearGradient><linearGradient id="e"><stop offset="0" stop-color="#73ecff"/><stop offset=".5" stop-color="#85ffe0"/><stop offset=".617" stop-color="#9dffe6"/><stop offset=".863" stop-color="#dafff6"/><stop offset="1" stop-color="#fff"/></linearGradient><linearGradient id="A" gradientUnits="userSpaceOnUse" x1="-365.989" x2="398.609" xlink:href="#e" y1="1022.567" y2="257.969"/><linearGradient id="B" gradientUnits="userSpaceOnUse" x1="-321.649" x2="434.722" xlink:href="#e" y1="838.8" y2="82.43"/><linearGradient id="C" gradientTransform="matrix(-1 0 0 1 1735.367 0)" gradientUnits="userSpaceOnUse" x1="1594.405" x2="1258.277" xlink:href="#a" y1="392.991" y2="56.863"/><linearGradient id="D" gradientTransform="matrix(-1 0 0 1 1735.367 0)" gradientUnits="userSpaceOnUse" x1="1612.849" x2="1071.35" xlink:href="#a" y1="561.303" y2="19.804"/><linearGradient id="E" gradientUnits="userSpaceOnUse" x1="159.798" x2="664.853" xlink:href="#a" y1="250.452" y2="-254.602"/><linearGradient id="F" gradientUnits="userSpaceOnUse" x1="131.607" x2="636.262" xlink:href="#a" y1="304.464" y2="-200.191"/><linearGradient id="G" gradientUnits="userSpaceOnUse" x1="72.086" x2="572.325" xlink:href="#a" y1="355.903" y2="-144.336"/><circle cx="256" cy="256" fill="url(#f)" r="256"/><circle cx="256" cy="256" fill="url(#g)" r="256"/><path d="M165.626 80.874a6745.487 6745.487 0 00-.646 30.5 3901.107 3901.107 0 01182.042 0 6895.387 6895.387 0 00-.646-30.5 3113.917 3113.917 0 00-180.75 0z" fill="url(#h)"/><path d="M150.563 81.348a5824.039 5824.039 0 00-1.945 212.869c10.227.113 20.454.21 30.681.291-.463-71.345 0-142.69 1.389-214.035.158-8.446-6.41-15.119-14.688-14.849-8.277.268-15.2 7.332-15.437 15.724z" fill="url(#i)"/><path d="M148.38 248.603c.02 15.205.099 30.41.238 45.615 10.227.113 20.454.21 30.681.291a8249.231 8249.231 0 01-.17-45.865c-10.25-.011-20.5-.025-30.749-.041z" fill="url(#j)"/><path d="M331.312 80.474c1.389 71.345 1.853 142.69 1.389 214.035 10.227-.081 20.454-.178 30.681-.291.648-70.957 0-141.913-1.945-212.869-.237-8.391-7.16-15.456-15.437-15.724-8.278-.269-14.846 6.402-14.688 14.849z" fill="url(#k)"/><path d="M332.871 248.644a8249.95 8249.95 0 01-.17 45.865c10.227-.081 20.454-.178 30.681-.291.139-15.205.218-30.41.238-45.615-10.249.016-20.499.03-30.749.041z" fill="url(#l)"/><path d="M218.344 79.79c-.099 10.235-.189 20.471-.269 30.707-.035 4.239 3.341 7.645 7.538 7.614 4.197-.03 7.613-3.488 7.632-7.732a13507.71 13507.71 0 0015.196-15.433 17217.957 17217.957 0 01-15.034-15.301c.023-4.244-3.321-7.66-7.47-7.617-4.15.042-7.55 3.523-7.593 7.762z" fill="url(#m)"/><path d="M218.344 79.79c-.099 10.235-.189 20.471-.269 30.707-.035 4.239 3.341 7.645 7.538 7.614 4.197-.03 7.613-3.488 7.632-7.732a8791.697 8791.697 0 007.636-15.408 6122.643 6122.643 0 01-7.474-15.326c.023-4.244-3.321-7.66-7.47-7.617-4.15.042-7.55 3.523-7.593 7.762z" fill="url(#n)"/><path d="M233.406 79.645c-.06 10.245-.113 20.49-.162 30.734-.021 4.243 3.365 7.663 7.562 7.649s7.603-3.462 7.608-7.708c2.536-5.13 5.065-10.257 7.585-15.382a6372.041 6372.041 0 01-7.531-15.366c.007-4.246-3.351-7.679-7.501-7.658-4.148.021-7.534 3.488-7.561 7.731z" fill="url(#o)"/><path d="M233.406 79.645c-.06 10.245-.113 20.49-.162 30.734-.021 4.243 3.365 7.663 7.562 7.649s7.603-3.462 7.608-7.708c2.536-5.13 5.065-10.257 7.585-15.382a6372.041 6372.041 0 01-7.531-15.366c.007-4.246-3.351-7.679-7.501-7.658-4.148.021-7.534 3.488-7.561 7.731z" fill="url(#p)"/><path d="M248.469 79.572c-.02 10.249-.038 20.499-.054 30.748-.008 4.246 3.388 7.679 7.585 7.68 4.197-.001 7.593-3.434 7.585-7.68 2.52-5.12 5.032-10.236 7.534-15.349a6832.292 6832.292 0 01-7.588-15.399c-.01-4.245-3.382-7.697-7.531-7.697s-7.521 3.451-7.531 7.697z" fill="url(#q)"/><path d="M248.469 79.572c-.02 10.249-.038 20.499-.054 30.748-.008 4.246 3.388 7.679 7.585 7.68 4.197-.001 7.593-3.434 7.585-7.68 2.52-5.12 5.032-10.236 7.534-15.349a6832.292 6832.292 0 01-7.588-15.399c-.01-4.245-3.382-7.697-7.531-7.697s-7.521 3.451-7.531 7.697z" fill="url(#r)"/><path d="M263.531 79.572c.02 10.249.038 20.499.054 30.748.005 4.245 3.412 7.693 7.608 7.708 4.197.015 7.583-3.406 7.562-7.649a6905.952 6905.952 0 007.483-15.31 7601.873 7601.873 0 01-7.645-15.425c-.026-4.244-3.412-7.709-7.562-7.731-4.149-.022-7.506 3.413-7.5 7.659z" fill="url(#s)"/><path d="M263.531 79.572c.02 10.249.038 20.499.054 30.748.005 4.245 3.412 7.693 7.608 7.708 4.197.015 7.583-3.406 7.562-7.649a6905.952 6905.952 0 007.483-15.31 7601.873 7601.873 0 01-7.645-15.425c-.026-4.244-3.412-7.709-7.562-7.731-4.149-.022-7.506 3.413-7.5 7.659z" fill="url(#t)"/><path d="M278.594 79.645c.06 10.245.113 20.49.162 30.734.019 4.245 3.435 7.702 7.632 7.732 4.197.031 7.573-3.375 7.538-7.614-.08-10.235-.17-20.471-.269-30.707-.043-4.239-3.443-7.719-7.592-7.762-4.15-.043-7.494 3.373-7.471 7.617z" fill="url(#u)"/><path d="M278.594 79.645c.06 10.245.113 20.49.162 30.734.019 4.245 3.435 7.702 7.632 7.732 4.197.031 7.573-3.375 7.538-7.614-.08-10.235-.17-20.471-.269-30.707-.043-4.239-3.443-7.719-7.592-7.762-4.15-.043-7.494 3.373-7.471 7.617z" fill="url(#v)"/><path d="M386.199 309.059c-43.4.752-86.8 1.128-130.199 1.128v92.25c42.677 0 85.353-.878 128.03-2.633a4736.725 4736.725 0 002.169-90.745z" fill="url(#w)"/><path d="M325.031 294.567c-66.474.474-132.949.263-199.423-.632.394 35.29 1.181 70.58 2.362 105.87a3114.642 3114.642 0 00195.811 1.895 9176.853 9176.853 0 001.25-107.133z" fill="url(#x)"/><path d="M324.648 340.481c-45.766.609-91.531.609-137.297 0-8.429-.108-15.17 6.615-15.037 15.044.234 15.27.515 30.54.842 45.81a3113.916 3113.916 0 00150.624.365c.358-20.407.647-40.813.868-61.219z" fill="url(#y)"/><path d="M125.605 293.729c.392 35.29 1.178 70.58 2.357 105.87a3118.537 3118.537 0 00256.074 0c1.179-35.29 1.965-70.58 2.357-105.87a9721.761 9721.761 0 01-260.788 0z" fill="url(#z)"/><path d="M394.318 263.641c-20.492.125-40.983.222-61.474.292a11403.779 11403.779 0 01-8.042 61.244c20.386-.229 40.771-.56 61.157-.993 8.44-.185 15.422-7.094 15.559-15.406.202-12.551.348-25.103.438-37.654.029-4.159-3.394-7.507-7.638-7.483z" fill="url(#A)"/><path d="M340.247 309.715c.117-12.725.201-25.45.253-38.175.018-4.216-3.413-7.621-7.657-7.608-71.72.243-143.44.146-215.161-.292-4.244-.024-7.667 3.325-7.637 7.483.09 12.551.236 25.103.438 37.654.136 8.311 7.118 15.219 15.559 15.406a6125.522 6125.522 0 00198.76.993c8.44-.099 15.365-7.032 15.445-15.461z" fill="url(#B)"/><path d="M100.075 403.557c3.616-11.446 14.546-19.341 27.732-18.865a3468.25 3468.25 0 0045.357 1.381 7657.428 7657.428 0 00-20.562 29.843c-15-.55-30-1.22-45-2.01-5.156-.276-9.036-5.574-7.527-10.349z" fill="url(#C)"/><path d="M145.202 405.557c3.759-11.655 14.777-19.791 27.963-19.485a3466.917 3466.917 0 00211.029-1.381c13.185-.476 24.115 7.419 27.732 18.865 1.51 4.773-2.37 10.073-7.527 10.349a2820.259 2820.259 0 01-251.796 2.01c-5.157-.192-8.97-5.497-7.401-10.358z" fill="url(#D)"/><path d="M246.959 133.384c-10.157.019-20.315.071-30.472.155-3.204.027-5.631 3.003-5.025 6.162 4.117 21.443 8.326 42.915 12.586 64.406a7.648 7.648 0 007.522 6.161c10.242-.015 20.485-.02 30.727-.016-5.145-25.627-10.282-51.255-15.338-76.868z" fill="url(#E)"/><path d="M256 133.375c-3.014 0-6.027.003-9.041.009-3.204.007-5.616 2.972-4.994 6.141 4.222 21.506 8.502 43.024 12.801 64.546a7.684 7.684 0 007.532 6.181c6.044.002 12.088.008 18.132.016a7.65 7.65 0 007.522-6.161c2.096-10.572 4.179-21.139 6.245-31.7A18301.414 18301.414 0 01256 133.375z" fill="url(#F)"/><path d="M295.513 133.538a4774.69 4774.69 0 00-39.513-.163c-.02 21.325 17.013 38.6 38.197 39.031a9353.987 9353.987 0 006.341-32.705c.606-3.16-1.821-6.136-5.025-6.163z" fill="url(#G)"/></svg>