<svg height="512" width="512" xmlns="http://www.w3.org/2000/svg" xmlns:xlink="http://www.w3.org/1999/xlink"><linearGradient id="e" gradientUnits="userSpaceOnUse" x1="74.98" x2="437.019" y1="437.019" y2="74.98"><stop offset="0" stop-color="#008547"/><stop offset="1" stop-color="#e6fe7f"/></linearGradient><radialGradient id="f" cx="256" cy="256" gradientUnits="userSpaceOnUse" r="256"><stop offset="0" stop-color="#00aa45"/><stop offset="1" stop-color="#d3ff33" stop-opacity="0"/></radialGradient><linearGradient id="a"><stop offset="0" stop-color="#95e12e"/><stop offset="1" stop-color="#ddff59"/></linearGradient><linearGradient id="g" gradientUnits="userSpaceOnUse" x1="141.622" x2="470.242" xlink:href="#a" y1="417.35" y2="88.73"/><linearGradient id="h" gradientUnits="userSpaceOnUse" x1="-.33" x2="505.791" xlink:href="#a" y1="655.256" y2="149.135"/><linearGradient id="i" gradientUnits="userSpaceOnUse" x1="256" x2="256" y1="420.565" y2="322.374"><stop offset="0" stop-color="#d3ff33" stop-opacity="0"/><stop offset=".116" stop-color="#c2f834" stop-opacity=".116"/><stop offset=".345" stop-color="#97e738" stop-opacity=".346"/><stop offset=".666" stop-color="#50ca3e" stop-opacity=".666"/><stop offset="1" stop-color="#00aa45"/></linearGradient><linearGradient id="b"><stop offset="0" stop-color="#b8ef5c"/><stop offset=".362" stop-color="#ddff59"/><stop offset="1" stop-color="#fff"/></linearGradient><linearGradient id="j" gradientUnits="userSpaceOnUse" x1="-426.35" x2="462.691" xlink:href="#b" y1="1034.345" y2="145.305"/><linearGradient id="k" gradientTransform="matrix(-1 0 0 1 2960 0)" gradientUnits="userSpaceOnUse" x1="3251.136" x2="2357.759" xlink:href="#b" y1="746.787" y2="-146.591"/><linearGradient id="l" gradientTransform="matrix(-1 0 0 1 2960 0)" gradientUnits="userSpaceOnUse" x1="3360.269" x2="2535.067" xlink:href="#a" y1="1018.39" y2="193.188"/><linearGradient id="m" gradientTransform="matrix(-1 0 0 1 2960 0)" gradientUnits="userSpaceOnUse" x1="3186.576" x2="2355.317" xlink:href="#a" y1="696.538" y2="-134.721"/><linearGradient id="c"><stop offset="0" stop-color="#008547"/><stop offset=".121" stop-color="#128f45"/><stop offset=".365" stop-color="#41aa41"/><stop offset=".705" stop-color="#8cd63a"/><stop offset="1" stop-color="#d3ff33"/></linearGradient><linearGradient id="n" gradientUnits="userSpaceOnUse" x1="365.346" x2="-505.535" xlink:href="#c" y1="454.567" y2="-416.313"/><linearGradient id="o" gradientTransform="matrix(-1 0 0 1 2960 0)" gradientUnits="userSpaceOnUse" x1="2863.05" x2="2374.974" xlink:href="#c" y1="514.04" y2="25.964"/><linearGradient id="p" gradientTransform="matrix(-1 0 0 1 2960 0)" gradientUnits="userSpaceOnUse" x1="2870.183" x2="2378.255" xlink:href="#c" y1="411.703" y2="-80.226"/><linearGradient id="d"><stop offset="0" stop-color="#ddff59"/><stop offset="1" stop-color="#fff"/></linearGradient><linearGradient id="q" gradientUnits="userSpaceOnUse" x1="142.658" x2="387.433" xlink:href="#d" y1="468.882" y2="224.107"/><linearGradient id="r" gradientUnits="userSpaceOnUse" x1="30.722" x2="277.536" xlink:href="#d" y1="588.505" y2="341.692"/><linearGradient id="s" gradientUnits="userSpaceOnUse" x1="19.024" x2="300.482" xlink:href="#d" y1="650.154" y2="368.696"/><linearGradient id="t" gradientUnits="userSpaceOnUse" x1="90.988" x2="777.736" y1="441.854" y2="-244.894"><stop offset="0" stop-color="#5ccd38"/><stop offset=".5" stop-color="#95e12e"/><stop offset="1" stop-color="#ddff59"/></linearGradient><linearGradient id="u" gradientUnits="userSpaceOnUse" x1="191.045" x2="704.699" xlink:href="#a" y1="490.864" y2="-22.79"/><circle cx="256" cy="256" fill="url(#e)" r="256"/><circle cx="256" cy="256" fill="url(#f)" r="256"/><path d="M106.152 350.204a3148.196 3148.196 0 001.991 52.906A4413.368 4413.368 0 00256 405.587v-53.813c-49.949.001-99.899-.523-149.848-1.57z" fill="url(#g)"/><path d="M151.868 351.017c.358 17.792.819 35.583 1.384 53.375a4413.855 4413.855 0 00250.605-1.281 3148.196 3148.196 0 001.991-52.906 7151.304 7151.304 0 01-253.98.812z" fill="url(#h)"/><path d="M106.152 350.204a3148.196 3148.196 0 001.991 52.906 4413.73 4413.73 0 00295.714 0 3148.196 3148.196 0 001.991-52.906 7146.187 7146.187 0 01-299.696 0z" fill="url(#i)"/><path d="M403.5 106.332c-25-.884-50-1.543-75-1.977a6554.057 6554.057 0 01.919 262.353 6088.08 6088.08 0 0075.951-1.388c16.754-.435 30.936-14.279 31.443-30.82a2570.521 2570.521 0 00-1.725-197c-.806-16.54-15.054-30.56-31.588-31.168z" fill="url(#j)"/><path d="M360.413 335.767c1.122-66.761.79-133.522-.996-200.283-.478-16.827-14.382-30.831-30.917-31.129a4174.364 4174.364 0 00-220 1.977c-16.535.609-30.782 14.628-31.588 31.168a2570.011 2570.011 0 00-1.725 197c.507 16.541 14.69 30.385 31.443 30.82a6097.065 6097.065 0 00222.79 1.388c16.755-.215 30.692-14.114 30.993-30.941z" fill="url(#k)"/><path d="M359.417 135.484c-14.241 33.085-29.238 66.475-44.512 100.013 15.46 33.599 30.789 67.075 45.508 100.27 15.28-.185 30.56-.412 45.84-.679a3140.91 3140.91 0 00-1.434-198.524 5290.002 5290.002 0 00-45.402-1.08z" fill="url(#l)"/><path d="M107.18 136.564a3140.91 3140.91 0 00-1.434 198.524 8606.624 8606.624 0 00254.667.679c1.122-66.761.79-133.522-.996-200.283a5302.854 5302.854 0 00-252.237 1.08z" fill="url(#m)"/><path d="M171.441 150.437c-16.54.229-33.081.526-49.621.89a3520.478 3520.478 0 00-1.092 168.849c73.506.924 147.013 1.094 220.519.512-56.209-56.301-114.514-114.283-169.806-170.251z" fill="url(#n)"/><path d="M390.18 151.327c-10.127-.223-20.254-.42-30.38-.593-14.527 28.038-29.606 56.337-44.894 84.763 15.446 28.487 30.807 56.872 45.739 85.02 10.209-.099 20.418-.213 30.628-.341.986-56.283.622-112.566-1.093-168.849z" fill="url(#o)"/><path d="M171.441 150.437c-1.834 93.579 76.133 170.916 169.806 170.251 6.466-.051 12.932-.108 19.397-.171.763-56.594.482-113.189-.844-169.783a6096.454 6096.454 0 00-188.359-.297z" fill="url(#p)"/><path d="M205.553 382.285c-8.364-.077-15.026 6.698-14.859 15.159.049 2.554.098 5.108.149 7.662 15.036.222 30.073.367 45.109.436-.047-7.685-.091-15.37-.13-23.055-10.09-.038-20.18-.106-30.269-.202z" fill="url(#q)"/><path d="M220.835 397.768l.08 7.68a5067.72 5067.72 0 0114.906-22.962c-8.364-.029-15.079 6.8-14.986 15.282z" fill="url(#r)"/><path d="M306.447 382.285c-23.542.224-47.084.291-70.626.202-8.364-.03-15.079 6.799-14.986 15.281l.08 7.68c33.414.266 66.828.152 100.242-.342.051-2.554.101-5.108.149-7.662.168-8.461-6.495-15.236-14.859-15.159z" fill="url(#s)"/><path d="M107.804 395.552c-4.163-.131-7.383 3.134-7.179 7.3.204 4.165 3.735 7.669 7.875 7.816 15 .53 30 .979 45 1.348-.17-5.083-.331-10.167-.484-15.25a4640.245 4640.245 0 01-45.212-1.214z" fill="url(#t)"/><path d="M404.196 395.552a4677.561 4677.561 0 01-251.18 1.214c-4.163-.09-7.428 3.239-7.283 7.443.146 4.206 3.626 7.703 7.766 7.807a4173.626 4173.626 0 00250-1.348c4.139-.147 7.672-3.652 7.875-7.816.205-4.165-3.015-7.429-7.178-7.3z" fill="url(#u)"/></svg>