<svg height="512" width="512" xmlns="http://www.w3.org/2000/svg" xmlns:xlink="http://www.w3.org/1999/xlink"><linearGradient id="e" gradientUnits="userSpaceOnUse" x1="74.98" x2="437.019" y1="437.019" y2="74.98"><stop offset="0" stop-color="#ff4c5e"/><stop offset="1" stop-color="#fff200"/></linearGradient><radialGradient id="f" cx="256" cy="256" gradientUnits="userSpaceOnUse" r="256"><stop offset="0" stop-color="#ff4c5e" stop-opacity=".6"/><stop offset="1" stop-color="#fff200" stop-opacity="0"/></radialGradient><linearGradient id="a"><stop offset="0" stop-color="#ff3838"/><stop offset="1" stop-color="#fff200"/></linearGradient><linearGradient id="g" gradientUnits="userSpaceOnUse" x1="67.902" x2="787.309" xlink:href="#a" y1="329.496" y2="-389.911"/><linearGradient id="h" gradientUnits="userSpaceOnUse" x1="34.079" x2="692.866" xlink:href="#a" y1="643.189" y2="-15.599"/><linearGradient id="i" gradientUnits="userSpaceOnUse" x1="78.912" x2="617.028" xlink:href="#a" y1="460.648" y2="-77.468"/><linearGradient id="b"><stop offset="0" stop-color="#ffcb00"/><stop offset="1" stop-color="#fffa78"/></linearGradient><linearGradient id="j" gradientTransform="matrix(-1 0 0 1 -1936 0)" gradientUnits="userSpaceOnUse" x1="-2162.145" x2="-2581.825" xlink:href="#b" y1="464.75" y2="45.071"/><linearGradient id="k" gradientTransform="matrix(-1 0 0 1 -1936 0)" gradientUnits="userSpaceOnUse" x1="-1897.144" x2="-2360.281" xlink:href="#b" y1="665.988" y2="202.851"/><linearGradient id="c"><stop offset="0" stop-color="#fffa78"/><stop offset="1" stop-color="#fff"/></linearGradient><linearGradient id="l" gradientUnits="userSpaceOnUse" x1="210.307" x2="624.445" xlink:href="#c" y1="344.23" y2="-69.909"/><linearGradient id="d"><stop offset="0" stop-color="#ffcb00" stop-opacity=".3"/><stop offset=".015" stop-color="#ffcc03" stop-opacity=".295"/><stop offset=".233" stop-color="#ffdd2d" stop-opacity=".23"/><stop offset=".445" stop-color="#ffe94e" stop-opacity=".166"/><stop offset=".648" stop-color="#fff365" stop-opacity=".106"/><stop offset=".838" stop-color="#fff873" stop-opacity=".049"/><stop offset="1" stop-color="#fffa78" stop-opacity="0"/></linearGradient><radialGradient id="m" cx="-2266.93" cy="240.038" gradientTransform="matrix(-1 0 0 1 -1936 0)" gradientUnits="userSpaceOnUse" r="358.411" xlink:href="#d"/><linearGradient id="n" gradientUnits="userSpaceOnUse" x1="877.502" x2="206.833" xlink:href="#c" y1="772.83" y2="102.161"/><linearGradient id="o" gradientUnits="userSpaceOnUse" x1="141.515" x2="390.782" y1="205.257" y2="205.257"><stop offset=".135" stop-color="#fff200"/><stop offset=".16" stop-color="#fff30c" stop-opacity=".972"/><stop offset=".281" stop-color="#fff641" stop-opacity=".831"/><stop offset=".404" stop-color="#fef96f" stop-opacity=".689"/><stop offset=".526" stop-color="#fefb94" stop-opacity=".548"/><stop offset=".647" stop-color="#fefdb1" stop-opacity=".408"/><stop offset=".767" stop-color="#fefec5" stop-opacity=".269"/><stop offset=".885" stop-color="#feffd2" stop-opacity=".132"/><stop offset="1" stop-color="#feffd6" stop-opacity="0"/></linearGradient><linearGradient id="p" gradientUnits="userSpaceOnUse" x1="109.271" x2="625.411" xlink:href="#b" y1="369.679" y2="-146.462"/><linearGradient id="q" gradientUnits="userSpaceOnUse" x1="72.502" x2="425.477" xlink:href="#b" y1="480.122" y2="127.147"/><linearGradient id="r" gradientUnits="userSpaceOnUse" x1="-92.77" x2="400.141" xlink:href="#b" y1="540.826" y2="47.915"/><linearGradient id="s" gradientUnits="userSpaceOnUse" x1="-73.157" x2="263.389" xlink:href="#b" y1="610.365" y2="273.819"/><linearGradient id="t" gradientUnits="userSpaceOnUse" x1="130.367" x2="588.411" xlink:href="#c" y1="218.065" y2="-239.98"/><linearGradient id="u" gradientUnits="userSpaceOnUse" x1="-37.728" x2="296.175" xlink:href="#c" y1="544.228" y2="210.325"/><radialGradient id="v" cx="181.07" cy="240.038" gradientUnits="userSpaceOnUse" r="358.411" xlink:href="#d"/><linearGradient id="w" gradientUnits="userSpaceOnUse" x1="-384.076" x2="286.594" xlink:href="#c" y1="791.404" y2="120.735"/><circle cx="256" cy="256" fill="url(#e)" r="256"/><circle cx="256" cy="256" fill="url(#f)" r="256"/><path d="M94.831 145.587c-8.419.225-15.443 7.137-15.646 15.414-1.806 75-1.222 150 1.753 225 .333 8.277 7.385 15.297 15.708 15.641 20.108.816 40.216 1.478 60.323 1.985a6431.02 6431.02 0 01-1.128-259.32c-20.336.326-40.673.753-61.01 1.28z" fill="url(#g)"/><path d="M417.169 145.587a6208.822 6208.822 0 00-30.505-.715 4876.171 4876.171 0 01-1.471 257.878c10.054-.331 20.108-.7 30.162-1.108 8.322-.344 15.374-7.364 15.708-15.641 2.974-75 3.559-150 1.753-225-.204-8.278-7.228-15.19-15.647-15.414z" fill="url(#h)"/><path d="M325.653 143.89a6225.24 6225.24 0 00-185.064.68 5552.506 5552.506 0 00.89 243.432c.22 8.398 7.167 15.41 15.491 15.624 14.578.368 29.156.654 43.734.86 6.331.089 12.327 3.188 16.167 8.383 5.766 7.794 14.69 12.433 24.129 12.473 10 .044 20 .044 30 0 9.439-.041 18.362-4.678 24.129-12.473 3.841-5.196 9.837-8.295 16.167-8.383 24.632-.347 49.264-.926 73.896-1.736 8.322-.279 15.323-7.301 15.599-15.644.246-7.559.472-15.119.679-22.678-23.347-72.372-49.585-146.224-75.817-220.538z" fill="url(#i)"/><path d="M286.563 335.622c38.543-.165 77.086-.642 115.628-1.431a4357.413 4357.413 0 01-.72 30.237c-.115 4.173-3.613 7.659-7.805 7.777a4937.006 4937.006 0 01-137.665 1.92c-.021-16.912 13.733-38.433 30.562-38.503z" fill="url(#j)"/><path d="M402.7 303.954a4294.222 4294.222 0 01-.51 30.237c-.086 4.173-3.579 7.635-7.793 7.725a6564.471 6564.471 0 01-107.869 1.388c-16.806.078-30.545 13.908-30.529 30.821-15.184-23.063-30.574-46.195-46.004-69.284 64.236.27 128.471-.025 192.705-.887z" fill="url(#k)"/><path d="M393.932 129.892a5382.283 5382.283 0 00-122.719-1.745c.099-.013-15.162 104.356-15.213 215.229-.011-16.913 13.781-30.747 30.646-30.799 36.095-.114 72.19-.431 108.285-.95 4.231-.063 7.713-3.499 7.769-7.672.741-55.434.419-110.869-.966-166.303-.106-4.175-3.603-7.652-7.802-7.76z" fill="url(#l)"/><path d="M256 128.125c45.977 0 91.955.589 137.932 1.767 4.199.109 7.697 3.585 7.802 7.759a4336.26 4336.26 0 01-.264 226.777c-.115 4.173-3.613 7.659-7.805 7.777A4937.006 4937.006 0 01256 374.125v-246z" fill="url(#m)"/><path d="M362 68.258a3443.694 3443.694 0 00-46-1.11c-32.891-.599-59.907 27.163-60 60.977-20.284 32.297-40.923 64.709-61.479 96.952-.046-.064 61.514 43.441 61.479 118.298-.036-33.965 27.488-61.501 61.44-61.605 15.701-.053 31.403-.127 47.104-.222 4.241-.027 7.701-3.454 7.723-7.655.331-65.93-.512-131.859-2.529-197.789-.131-4.199-3.597-7.717-7.738-7.846z" fill="url(#n)"/><path d="M362 68.258a3443.694 3443.694 0 00-46-1.11c-32.891-.599-59.907 27.163-60 60.977-20.284 32.297-40.923 64.709-61.479 96.952-.046-.064 61.514 43.441 61.479 118.298-.036-33.965 27.488-61.501 61.44-61.605 15.701-.053 31.403-.127 47.104-.222 4.241-.027 7.701-3.454 7.723-7.655.331-65.93-.512-131.859-2.529-197.789-.131-4.199-3.597-7.717-7.738-7.846z" fill="url(#o)"/><path d="M109.809 334.191c.205 10.079.445 20.158.72 30.237.114 4.173 3.613 7.659 7.805 7.777 7.592.212 15.184.406 22.776.583a14980.249 14980.249 0 0129.824-37.607c-20.375-.243-40.75-.573-61.125-.99z" fill="url(#p)"/><path d="M225.438 335.622a7116.447 7116.447 0 01-85.066-.871c.203 12.679.449 25.358.738 38.036 38.297.891 76.593 1.337 114.89 1.337.021-16.911-13.733-38.432-30.562-38.502z" fill="url(#q)"/><path d="M109.3 303.954c.135 10.079.304 20.158.51 30.237.086 4.173 3.579 7.635 7.793 7.725 7.632.161 15.264.309 22.897.443 9.956-12.5 20.014-25.094 30.139-37.754-20.447-.16-40.893-.377-61.339-.651z" fill="url(#r)"/><path d="M225.331 304.895c-28.454-.08-56.908-.271-85.362-.572.133 12.679.31 25.358.53 38.036 28.324.499 56.648.814 84.972.945 16.805.078 30.545 13.908 30.529 30.821v-30.75c.015-16.913-13.788-38.435-30.669-38.48z" fill="url(#s)"/><path d="M118.068 129.892c-4.199.109-7.697 3.585-7.802 7.759a4334.843 4334.843 0 00-.966 166.303c.057 4.173 3.538 7.609 7.769 7.672 7.662.11 15.323.211 22.985.303 19.708-60.613 40.799-121.969 61.686-183.531-27.89.281-55.781.779-83.672 1.494z" fill="url(#t)"/><path d="M256 274.188c-38.756 0-77.512-.098-116.267-.294.064 12.679.171 25.357.321 38.036 28.433.341 56.866.557 85.3.647 16.864.053 30.659 13.885 30.646 30.799v-69.188z" fill="url(#u)"/><path d="M256 128.125c-45.977 0-91.955.589-137.932 1.767-4.199.109-7.697 3.585-7.802 7.759a4336.26 4336.26 0 00.264 226.777c.114 4.173 3.613 7.659 7.805 7.777 45.888 1.28 91.777 1.92 137.665 1.92v-246z" fill="url(#v)"/><path d="M196 67.148c-15.333.267-30.667.637-46 1.11-4.139.129-7.609 3.646-7.738 7.847a5553.17 5553.17 0 00-2.529 197.789c.022 4.2 3.482 7.628 7.723 7.655 15.701.094 31.403.168 47.104.222 33.952.104 61.474 27.638 61.44 61.605v-215.25c-.094-33.816-27.109-61.577-60-60.978z" fill="url(#w)"/></svg>