<svg height="512" width="512" xmlns="http://www.w3.org/2000/svg" xmlns:xlink="http://www.w3.org/1999/xlink"><linearGradient id="e" gradientUnits="userSpaceOnUse" x1="14.896" x2="448.08" y1="497.104" y2="63.92"><stop offset="0" stop-color="#ff4c5e"/><stop offset="1" stop-color="#fff200"/></linearGradient><radialGradient id="f" cx="256" cy="256" gradientUnits="userSpaceOnUse" r="256"><stop offset="0" stop-color="#ff4c5e" stop-opacity=".6"/><stop offset="1" stop-color="#fff200" stop-opacity="0"/></radialGradient><linearGradient id="a"><stop offset="0" stop-color="#fff200"/><stop offset=".21" stop-color="#fff52f"/><stop offset=".758" stop-color="#fefca6"/><stop offset="1" stop-color="#feffd6"/></linearGradient><linearGradient id="g" gradientUnits="userSpaceOnUse" x1="-23.495" x2="327.236" xlink:href="#a" y1="435.676" y2="84.945"/><linearGradient id="h" gradientUnits="userSpaceOnUse" x1="73.661" x2="762.268" xlink:href="#a" y1="241.4" y2="-447.207"/><linearGradient id="i" gradientUnits="userSpaceOnUse" x1="-5.749" x2="404.6" xlink:href="#a" y1="358.217" y2="-52.132"/><linearGradient id="b"><stop offset="0" stop-color="#ff3838"/><stop offset="1" stop-color="#fff200"/></linearGradient><linearGradient id="j" gradientUnits="userSpaceOnUse" x1="106.927" x2="751.046" xlink:href="#b" y1="419.648" y2="-224.471"/><linearGradient id="k" gradientUnits="userSpaceOnUse" x1="71.512" x2="790.497" xlink:href="#b" y1="566.959" y2="-152.026"/><linearGradient id="l" gradientUnits="userSpaceOnUse" x1="256" x2="256" y1="372.705" y2="303.335"><stop offset="0" stop-color="#ff4c5e" stop-opacity="0"/><stop offset=".316" stop-color="#ff4957" stop-opacity=".19"/><stop offset=".772" stop-color="#ff3f44" stop-opacity=".463"/><stop offset="1" stop-color="#ff3838" stop-opacity=".6"/></linearGradient><linearGradient id="m" gradientUnits="userSpaceOnUse" x1="10.042" x2="603.934" xlink:href="#b" y1="439.13" y2="-154.763"/><linearGradient id="n" gradientUnits="userSpaceOnUse" x1="10.253" x2="598.608" xlink:href="#b" y1="523.393" y2="-64.962"/><linearGradient id="o" gradientUnits="userSpaceOnUse" x1="66.749" x2="499.091" xlink:href="#b" y1="506.443" y2="74.101"/><linearGradient id="p" gradientUnits="userSpaceOnUse" x1="109.511" x2="406.227" xlink:href="#a" y1="581.303" y2="284.587"/><linearGradient id="q" gradientUnits="userSpaceOnUse" x1="188.714" x2="516.85" xlink:href="#a" y1="458.17" y2="130.034"/><linearGradient id="r" gradientUnits="userSpaceOnUse" x1="116.51" x2="480.525" xlink:href="#b" y1="571.861" y2="207.846"/><linearGradient id="c"><stop offset="0" stop-color="#ff4c5e" stop-opacity="0"/><stop offset=".545" stop-color="#ff4c5c" stop-opacity=".327"/><stop offset=".742" stop-color="#ff4856" stop-opacity=".445"/><stop offset=".881" stop-color="#ff424a" stop-opacity=".529"/><stop offset=".994" stop-color="#ff3939" stop-opacity=".597"/><stop offset="1" stop-color="#ff3838" stop-opacity=".6"/></linearGradient><linearGradient id="s" gradientUnits="userSpaceOnUse" x1="355.302" x2="355.302" xlink:href="#c" y1="410.878" y2="286.064"/><linearGradient id="t" gradientUnits="userSpaceOnUse" x1="318.286" x2="405.725" xlink:href="#b" y1="361.987" y2="274.548"/><linearGradient id="d"><stop offset=".006" stop-color="#ff3838" stop-opacity="0"/><stop offset="1" stop-color="#ff3838" stop-opacity=".6"/></linearGradient><radialGradient id="u" cx="355.328" cy="324.958" gradientUnits="userSpaceOnUse" r="15.095" xlink:href="#d"/><linearGradient id="v" gradientUnits="userSpaceOnUse" x1="317.542" x2="404.389" xlink:href="#b" y1="302.24" y2="215.393"/><radialGradient id="w" cx="355.892" cy="263.898" gradientUnits="userSpaceOnUse" r="15.137" xlink:href="#d"/><linearGradient id="x" gradientUnits="userSpaceOnUse" x1="313.278" x2="399.722" xlink:href="#b" y1="276.016" y2="189.573"/><radialGradient id="y" cx="355.933" cy="233.368" gradientUnits="userSpaceOnUse" r="15.14" xlink:href="#d"/><linearGradient id="z" gradientUnits="userSpaceOnUse" x1="-80.647" x2="355.014" xlink:href="#b" y1="455.832" y2="20.171"/><linearGradient id="A" gradientUnits="userSpaceOnUse" x1="13.778" x2="196.336" xlink:href="#a" y1="478.801" y2="296.243"/><linearGradient id="B" gradientUnits="userSpaceOnUse" x1=".227" x2="309.586" xlink:href="#a" y1="447.309" y2="137.95"/><linearGradient id="C" gradientUnits="userSpaceOnUse" x1="-51.241" x2="301.792" xlink:href="#b" y1="541.64" y2="188.607"/><linearGradient id="D" gradientUnits="userSpaceOnUse" x1="156.698" x2="156.698" xlink:href="#c" y1="410.878" y2="286.064"/><linearGradient id="E" gradientUnits="userSpaceOnUse" x1="129.958" x2="215.092" xlink:href="#b" y1="351.673" y2="266.538"/><radialGradient id="F" cx="156.672" cy="324.958" gradientUnits="userSpaceOnUse" r="15.095" xlink:href="#d"/><linearGradient id="G" gradientUnits="userSpaceOnUse" x1="126.989" x2="213.209" xlink:href="#b" y1="293.021" y2="206.802"/><radialGradient id="H" cx="156.108" cy="263.898" gradientUnits="userSpaceOnUse" r="15.137" xlink:href="#d"/><linearGradient id="I" gradientUnits="userSpaceOnUse" x1="123.692" x2="210.346" xlink:href="#b" y1="265.751" y2="179.097"/><radialGradient id="J" cx="156.068" cy="233.368" gradientUnits="userSpaceOnUse" r="15.14" xlink:href="#d"/><circle cx="256" cy="256" fill="url(#e)" r="256"/><circle cx="256" cy="256" fill="url(#f)" r="256"/><path d="M301 72.133c-10-.115-20-.191-30-.229a8223.087 8223.087 0 0030.372 30.932c.167 15.352.307 30.703.418 46.055 10.176.062 20.351.146 30.527.25-.186-15.31-.418-30.62-.697-45.93-.334-16.898-14.083-30.881-30.62-31.078z" fill="url(#g)"/><path d="M241 71.904c-10 .038-20 .115-30 .229-16.539.197-30.287 14.18-30.62 31.078-.279 15.31-.511 30.62-.697 45.93 10.176-.104 20.351-.188 30.527-.25.112-15.352.251-30.703.418-46.055.211-16.948 13.833-30.865 30.372-30.932z" fill="url(#h)"/><path d="M271 71.904c-10-.038-20-.038-30 0-16.539.066-30.161 13.985-30.372 30.932 30.248-.281 60.496-.281 90.744 0-.211-16.948-13.833-30.865-30.372-30.932z" fill="url(#i)"/><path d="M87.011 210.88c-.5 55.22.375 110.439 2.625 165.659.702 16.608 14.826 30.676 31.364 31.266 15 .516 30 .945 45 1.289 84.318-23.521 170.723-50.687 257.898-77.734 1.091-40.16 1.454-80.319 1.091-120.479a22651.342 22651.342 0 00-337.978-.001z" fill="url(#j)"/><path d="M391 407.805c-75 2.578-150 3.008-225 1.289-16.539-.394-30.474-14.44-30.992-31.219a4692.616 4692.616 0 01-1.116-45.625 7456.741 7456.741 0 00290.005-.891c-.409 15.06-.921 30.12-1.534 45.18-.702 16.609-14.825 30.676-31.363 31.266z" fill="url(#k)"/><path d="M391 407.805c-90 3.094-180 3.094-270 0-16.538-.59-30.662-14.657-31.364-31.266a3328.181 3328.181 0 01-2.625-165.659c112.659-.84 225.318-.84 337.977 0 .5 55.22-.375 110.439-2.625 165.659-.702 16.609-14.825 30.676-31.363 31.266z" fill="url(#l)"/><path d="M210.331 133.539c-10.149.073-20.297.17-30.446.292a13245.88 13245.88 0 01-23.097 15.58c-7.551-4.987-15.077-9.945-22.573-14.869a6383.13 6383.13 0 00-45.669 1.039c-8.402.227-15.456 7.141-15.707 15.419-1.19 40-1.587 80-1.19 120 .171 16.542 14.181 30.204 31.097 30.458 91.953 1.25 183.905 1.375 275.857.375-55.466-55.152-112.932-112.406-168.272-168.294z" fill="url(#m)"/><path d="M423.455 135.581a6383.13 6383.13 0 00-45.669-1.039c-7.496 4.924-15.022 9.882-22.573 14.869-7.712-5.19-15.413-10.385-23.097-15.58-40.595-.486-81.19-.583-121.785-.292-.811 93.081 75.469 169.396 168.273 168.294 10.217-.111 20.434-.236 30.651-.375 16.915-.254 30.926-13.916 31.097-30.458.397-40 0-80-1.19-120-.25-8.277-7.306-15.192-15.707-15.419z" fill="url(#n)"/><path d="M378.603 301.834c-15.325.167-30.651.302-45.976.406a7563.43 7563.43 0 00-.511-168.409c15.223.182 30.446.419 45.669.711a4662.647 4662.647 0 01.818 167.292z" fill="url(#o)"/><path d="M378.777 286.625c-5.116.042-10.231.081-15.347.117-.173 20.33-.463 40.66-.868 60.99 5.074-.085 10.149-.176 15.223-.273 8.403-.165 15.396-7.105 15.586-15.474.223-10.109.409-20.219.558-30.328.126-8.371-6.675-15.096-15.152-15.032z" fill="url(#p)"/><path d="M363.43 286.742c-10.232.073-20.463.135-30.694.188-8.478.041-15.38 6.933-15.434 15.404a9500.583 9500.583 0 01-.248 30.667c-.078 8.47 6.658 15.272 15.062 15.169a10101.233 10101.233 0 0146.488-46.336c.11-8.396-6.697-15.147-15.174-15.092z" fill="url(#q)"/><path d="M354.306 378.385c-12.517.26-22.482-9.873-22.302-22.561.271-17.861.479-35.723.624-53.585 15.325-.104 30.651-.24 45.976-.406a4654.916 4654.916 0 01-.998 53.229c-.32 12.589-10.786 23.063-23.3 23.323z" fill="url(#r)"/><path d="M354.306 378.385c-12.517.26-22.482-9.873-22.302-22.561.271-17.861.479-35.723.624-53.585 15.325-.104 30.651-.24 45.976-.406a4654.916 4654.916 0 01-.998 53.229c-.32 12.589-10.786 23.063-23.3 23.323z" fill="url(#s)"/><path d="M362.969 324.861c-.067 4.209-3.543 7.672-7.756 7.729-4.214.057-7.58-3.322-7.525-7.543.056-4.221 3.522-7.676 7.746-7.722s7.602 3.327 7.535 7.536z" fill="url(#t)"/><path d="M362.969 324.861c-.067 4.209-3.543 7.672-7.756 7.729-4.214.057-7.58-3.322-7.525-7.543.056-4.221 3.522-7.676 7.746-7.722s7.602 3.327 7.535 7.536z" fill="url(#u)"/><path d="M363.576 263.871c-.018 4.21-3.477 7.639-7.719 7.659s-7.664-3.387-7.649-7.608c.015-4.22 3.464-7.649 7.709-7.657s7.677 3.397 7.659 7.606z" fill="url(#v)"/><path d="M363.576 263.871c-.018 4.21-3.477 7.639-7.719 7.659s-7.664-3.387-7.649-7.608c.015-4.22 3.464-7.649 7.709-7.657s7.677 3.397 7.659 7.606z" fill="url(#w)"/><path d="M363.62 233.376c.006 4.21-3.436 7.623-7.682 7.624-4.246 0-7.687-3.42-7.692-7.641s3.427-7.634 7.672-7.624c4.244.011 7.696 3.432 7.702 7.641z" fill="url(#x)"/><path d="M363.62 233.376c.006 4.21-3.436 7.623-7.682 7.624-4.246 0-7.687-3.42-7.692-7.641s3.427-7.634 7.672-7.624c4.244.011 7.696 3.432 7.702 7.641z" fill="url(#y)"/><path d="M179.373 302.24c-15.325-.104-30.651-.24-45.976-.406a4664.978 4664.978 0 01.818-167.292c15.223-.292 30.446-.529 45.669-.711a7563.43 7563.43 0 00-.511 168.409z" fill="url(#z)"/><path d="M179.264 286.93c-5.116-.026-10.231-.055-15.347-.086.149 20.375.397 40.75.744 61.125 5.074.073 10.149.14 15.223.201 8.404.103 15.14-6.699 15.062-15.169a9498.256 9498.256 0 01-.248-30.667c-.052-8.471-6.955-15.364-15.434-15.404z" fill="url(#A)"/><path d="M163.917 286.844c-10.231-.063-20.463-.135-30.694-.219-8.478-.064-15.279 6.661-15.152 15.031.149 10.109.335 20.219.558 30.328.189 8.37 7.182 15.309 15.586 15.474a52868.29 52868.29 0 0145.158-45.219c-.066-8.458-6.978-15.346-15.456-15.395z" fill="url(#B)"/><path d="M157.694 378.385c-12.514-.26-22.98-10.734-23.3-23.322a4677.96 4677.96 0 01-.998-53.229c15.325.167 30.651.302 45.976.406.145 17.862.353 35.723.624 53.585.18 12.688-9.785 22.82-22.302 22.56z" fill="url(#C)"/><path d="M157.694 378.385c-12.514-.26-22.98-10.734-23.3-23.322a4677.96 4677.96 0 01-.998-53.229c15.325.167 30.651.302 45.976.406.145 17.862.353 35.723.624 53.585.18 12.688-9.785 22.82-22.302 22.56z" fill="url(#D)"/><path d="M164.313 325.047c.055 4.22-3.311 7.6-7.525 7.543s-7.69-3.52-7.756-7.729 3.31-7.582 7.535-7.536 7.69 3.501 7.746 7.722z" fill="url(#E)"/><path d="M164.313 325.047c.055 4.22-3.311 7.6-7.525 7.543s-7.69-3.52-7.756-7.729 3.31-7.582 7.535-7.536 7.69 3.501 7.746 7.722z" fill="url(#F)"/><path d="M163.792 263.922c.014 4.221-3.407 7.628-7.649 7.608-4.242-.019-7.702-3.45-7.719-7.659-.018-4.209 3.414-7.615 7.659-7.606 4.245.008 7.693 3.436 7.709 7.657z" fill="url(#G)"/><path d="M163.792 263.922c.014 4.221-3.407 7.628-7.649 7.608-4.242-.019-7.702-3.45-7.719-7.659-.018-4.209 3.414-7.615 7.659-7.606 4.245.008 7.693 3.436 7.709 7.657z" fill="url(#H)"/><path d="M163.755 233.36c-.005 4.221-3.446 7.642-7.692 7.641s-7.688-3.415-7.682-7.624 3.458-7.631 7.702-7.641c4.244-.011 7.676 3.403 7.672 7.624z" fill="url(#I)"/><path d="M163.755 233.36c-.005 4.221-3.446 7.642-7.692 7.641s-7.688-3.415-7.682-7.624 3.458-7.631 7.702-7.641c4.244-.011 7.676 3.403 7.672 7.624z" fill="url(#J)"/></svg>