<svg height="512" width="512" xmlns="http://www.w3.org/2000/svg" xmlns:xlink="http://www.w3.org/1999/xlink"><linearGradient id="e" gradientUnits="userSpaceOnUse" x1="74.98" x2="437.019" y1="437.019" y2="74.98"><stop offset="0" stop-color="#ff4c5e"/><stop offset="1" stop-color="#fff200"/></linearGradient><radialGradient id="f" cx="257.52" cy="335.098" gradientUnits="userSpaceOnUse" r="335.879"><stop offset="0" stop-color="#ff4c5e" stop-opacity=".6"/><stop offset=".017" stop-color="#ff505c" stop-opacity=".59"/><stop offset=".366" stop-color="#ff9535" stop-opacity=".38"/><stop offset=".658" stop-color="#ffc718" stop-opacity=".205"/><stop offset=".877" stop-color="#ffe607" stop-opacity=".074"/><stop offset="1" stop-color="#fff200" stop-opacity="0"/></radialGradient><radialGradient id="g" cx="258.535" cy="134.309" gradientUnits="userSpaceOnUse" r="380.11"><stop offset="0" stop-color="#fff200" stop-opacity=".6"/><stop offset=".655" stop-color="#fff200" stop-opacity="0"/></radialGradient><linearGradient id="a"><stop offset="0" stop-color="#ffcb00"/><stop offset="1" stop-color="#fffa78"/></linearGradient><linearGradient id="h" gradientTransform="rotate(-14.98 -355.937 -453.57)" gradientUnits="userSpaceOnUse" x1="-95.819" x2="229.895" xlink:href="#a" y1="374.082" y2="186.03"/><linearGradient id="b"><stop offset="0" stop-color="#fff200"/><stop offset=".33" stop-color="#fff658"/><stop offset=".794" stop-color="#fffdcf"/><stop offset="1" stop-color="#fff"/></linearGradient><linearGradient id="i" gradientUnits="userSpaceOnUse" x1="88.626" x2="313.917" xlink:href="#b" y1="299.114" y2="73.823"/><linearGradient id="j" gradientUnits="userSpaceOnUse" x1="172.583" x2="320.881" xlink:href="#b" y1="215.162" y2="66.863"/><linearGradient id="k" gradientUnits="userSpaceOnUse" x1="-122.336" x2="349.249" xlink:href="#a" y1="617.908" y2="146.323"/><linearGradient id="c"><stop offset="0" stop-color="#fff200"/><stop offset=".21" stop-color="#fff52f"/><stop offset=".758" stop-color="#fefca6"/><stop offset="1" stop-color="#feffd6"/></linearGradient><linearGradient id="l" gradientUnits="userSpaceOnUse" x1="-271.101" x2="684.328" xlink:href="#c" y1="892.081" y2="-63.349"/><linearGradient id="m" gradientUnits="userSpaceOnUse" x1="-338.978" x2="398.977" xlink:href="#c" y1="983.736" y2="245.781"/><linearGradient id="d"><stop offset="0" stop-color="#ff3838"/><stop offset="1" stop-color="#fff200"/></linearGradient><linearGradient id="n" gradientUnits="userSpaceOnUse" x1="111.641" x2="328.454" xlink:href="#d" y1="434.775" y2="217.963"/><linearGradient id="o" gradientUnits="userSpaceOnUse" x1="72.307" x2="331.545" xlink:href="#d" y1="491.718" y2="232.479"/><linearGradient id="p" gradientUnits="userSpaceOnUse" x1="141.892" x2="317.332" xlink:href="#d" y1="497.729" y2="322.289"/><linearGradient id="q" gradientUnits="userSpaceOnUse" x1="134.562" x2="397.38" xlink:href="#d" y1="509.447" y2="246.629"/><linearGradient id="r" gradientUnits="userSpaceOnUse" x1="57.146" x2="230.811" xlink:href="#d" y1="379.51" y2="205.845"/><linearGradient id="s" gradientUnits="userSpaceOnUse" x1="55.666" x2="230.445" xlink:href="#d" y1="415.294" y2="240.515"/><linearGradient id="t" gradientUnits="userSpaceOnUse" x1="63.3" x2="233.329" xlink:href="#d" y1="467.654" y2="297.625"/><linearGradient id="u" gradientUnits="userSpaceOnUse" x1="57.046" x2="229.573" xlink:href="#d" y1="504.294" y2="331.767"/><linearGradient id="v" gradientUnits="userSpaceOnUse" x1="199.806" x2="433.637" xlink:href="#d" y1="535.789" y2="301.958"/><linearGradient id="w" gradientUnits="userSpaceOnUse" x1="165.173" x2="414.832" xlink:href="#d" y1="558.064" y2="308.405"/><circle cx="256" cy="256" fill="url(#e)" r="256"/><circle cx="256" cy="256" fill="url(#f)" r="256"/><circle cx="256" cy="256" fill="url(#g)" r="256"/><path d="M342.319 103.086c-11.571-6.619-18.724-18.976-18.687-32.144.01-4.374-3.526-7.999-7.838-8.023-12.984-.07-25.092-7.326-31.401-18.991-2.077-3.835-6.832-5.09-10.463-2.877a34.517 34.517 0 01-35.865-.001c-3.63-2.212-8.385-.958-10.462 2.876-6.311 11.665-18.419 18.921-31.4 18.99-4.312.024-7.847 3.647-7.838 8.021.037 13.172-7.118 25.528-18.683 32.143-3.8 2.177-5.065 7.033-2.9 10.678 6.567 11.067 6.432 25.122-.437 36.447-2.267 3.737-1.118 8.542 2.663 10.57 11.505 6.171 18.524 18.331 18.246 31.501-.093 4.377 3.443 7.89 7.838 7.795a35.411 35.411 0 0131.842 18.353c2.095 3.807 6.965 5.006 10.697 2.764a35.655 35.655 0 0136.744.001c3.731 2.241 8.601 1.043 10.697-2.763a35.41 35.41 0 0131.84-18.352c4.396.095 7.931-3.417 7.838-7.793-.276-13.176 6.745-25.334 18.243-31.501 3.781-2.028 4.932-6.832 2.666-10.568-6.872-11.332-7.006-25.387-.442-36.447 2.166-3.645.9-8.501-2.898-10.679z" fill="url(#h)"/><path d="M256 76.541c-29.73.014-54.175 25.025-54.447 55.171-.25 30.158 24.197 54.479 54.447 54.504 30.251-.025 54.697-24.346 54.447-54.504-.271-30.146-24.718-55.157-54.447-55.171z" fill="url(#i)"/><path d="M271.309 155.487c-30.186-.097-54.551-24.421-54.307-54.636.019-2.683.237-5.32.623-7.904-9.795 10.019-15.961 23.731-16.072 38.765-.25 30.158 24.197 54.479 54.447 54.504 27.562-.016 50.311-20.235 53.93-46.625-9.804 9.847-23.484 15.935-38.621 15.896z" fill="url(#j)"/><path d="M133 237.992c-16.981.033-30.764 13.47-30.666 30.008.261 45 1.126 90 2.596 135 .562 16.534 14.527 30.864 31.069 31.747 20 1.035 40 1.812 60 2.33a13109.38 13109.38 0 01-1.5-199.095c-20.499.002-40.999.006-61.499.01z" fill="url(#k)"/><path d="M256 237.979l-61.5.003c-16.981.018-30.759 13.67-30.699 30.484.156 45.72.676 91.44 1.558 137.16.347 16.812 14.098 31.009 30.642 31.451 60 1.553 120 .777 180-2.33 16.543-.883 30.507-15.213 31.069-31.747.163-5 .319-10 .468-15C358.509 340.486 307.25 289.229 256 237.979z" fill="url(#l)"/><path d="M379 237.992c-41-.009-82-.014-123-.014.291 84.875 68.263 154.488 151.537 150.021 1.187-40 1.896-80 2.129-120 .098-16.536-13.685-29.974-30.666-30.007z" fill="url(#m)"/><path d="M230.378 253.344c-8.49-.005-15.368 6.858-15.356 15.333.023 15.348.064 30.697.123 46.045.035 8.474 6.916 15.402 15.361 15.445 16.996.083 33.991.083 50.987 0a15.242 15.242 0 004.543-.713c-9.674-25.316-19.467-50.706-29.275-76.101-8.794.001-17.588-.002-26.383-.009z" fill="url(#n)"/><path d="M296.854 314.722c.059-15.348.1-30.697.123-46.045.014-8.475-6.865-15.338-15.356-15.333-8.287.006-16.574.01-24.86.01a153.541 153.541 0 0029.275 76.101c6.237-1.98 10.79-7.844 10.818-14.733z" fill="url(#o)"/><path d="M230.907 422.354c16.729.166 33.457.166 50.186 0 8.31-.083 15.115-7.069 15.192-15.542.131-15.348.243-30.697.338-46.045.056-8.475-6.743-15.281-15.178-15.236-16.963.096-33.927.096-50.89 0-8.436-.046-15.235 6.76-15.178 15.236.095 15.348.208 30.697.338 46.045.077 8.474 6.882 15.459 15.192 15.542z" fill="url(#p)"/><path d="M378.984 253.127c-17.081.063-34.162.113-51.243.149-8.492.015-15.379 6.888-15.397 15.354-.032 15.325-.089 30.649-.17 45.974-.043 8.466 6.762 15.257 15.207 15.139 16.996-.231 33.991-.545 50.987-.941 8.443-.203 15.404-7.134 15.515-15.45.199-15.071.338-30.142.416-45.214.045-8.316-6.824-15.035-15.315-15.011z" fill="url(#q)"/><path d="M133.016 253.127c-8.49-.025-15.36 6.694-15.315 15.011.078 15.071.217 30.143.416 45.214.112 8.316 7.07 15.247 15.515 15.45 10.197.238 20.395.446 30.592.624a8402.516 8402.516 0 013.661-76.189c-11.623-.03-23.246-.067-34.869-.11z" fill="url(#r)"/><path d="M199.826 314.604c-.081-15.325-.138-30.649-.17-45.974-.018-8.466-6.905-15.339-15.397-15.354l-16.374-.039a29.938 29.938 0 00-4.085 15.229c.07 20.32.211 40.64.424 60.96 6.798.119 13.596.224 20.395.317 8.445.119 15.249-6.673 15.207-15.139z" fill="url(#s)"/><path d="M164.398 344.666a4443.453 4443.453 0 01-30.534-.729c-8.435-.223-15.148 6.312-14.967 14.629.32 15.071.701 30.143 1.142 45.214.25 8.316 7.207 15.431 15.517 15.833a2530.64 2530.64 0 0034.15 1.395 10789.773 10789.773 0 01-5.308-76.342z" fill="url(#t)"/><path d="M169.704 421.007c5.345.182 10.691.348 16.036.496 8.309.235 14.962-6.486 14.868-14.951-.18-15.325-.335-30.649-.465-45.974-.068-8.467-6.955-15.41-15.389-15.542a4457.77 4457.77 0 01-20.356-.37c.249 20.32.569 40.64.961 60.96.108 5.554 1.691 10.806 4.345 15.381z" fill="url(#u)"/><path d="M312.328 356.97a15.468 15.468 0 00-.471 3.608c-.13 15.325-.286 30.649-.465 45.974-.094 8.466 6.559 15.186 14.868 14.951a2534.487 2534.487 0 0050.186-1.891c8.309-.402 15.268-7.517 15.517-15.833.154-5.273.301-10.545.441-15.818-26.508-9.798-53.219-20.205-80.076-30.991z" fill="url(#v)"/><path d="M393.104 358.566c.182-8.317-6.533-14.852-14.967-14.629-16.964.463-33.927.829-50.89 1.099-7.196.113-13.251 5.187-14.918 11.934 22.37 18.092 49.836 29.362 80.075 30.992.258-9.799.492-19.597.7-29.396z" fill="url(#w)"/></svg>