<svg height="30" width="30" viewBox="0 0 64 64" xmlns="http://www.w3.org/2000/svg"><circle cx="24.39" cy="24.39" fill="#8ccfb5" r="13.36" transform="rotate(-67.48 24.398 24.387)"/><path d="M39.11 37.58L36 34.45c-.25-.25-.78.3-1 .55s-.73.65-.48.9l3.06 3.1c.12.13.56 0 .73 0s.21-.21.34-.33.71-.84.46-1.09z" fill="#2f3a5a"/><path d="M35.87 12.91a16.24 16.24 0 100 23 16.25 16.25 0 000-23zM33 33a12.2 12.2 0 110-17.26A12.22 12.22 0 0133 33zm22.05 16.71L44.37 39l-.91-.91-2.36-2.34a.8.8 0 00-1.13 0L35.75 40a.8.8 0 000 1.13L49.63 55a3.87 3.87 0 004.81.58 3.78 3.78 0 00.61-5.87z" fill="#3d4c70"/><g fill="#2f3a5a"><path d="M56 51.46a3.48 3.48 0 01-.72 1 3.78 3.78 0 01-5.35 0L36.62 39.11l-.87.86a.8.8 0 000 1.13l13.83 13.83a3.9 3.9 0 005.32.27 3.75 3.75 0 001.1-3.74z"/><path d="M38.108 43.46l5.345-5.345.912.912-5.345 5.345z"/></g></svg>